<svg width="100" height="100" viewBox="0 0 100 100" fill="none" xmlns="http://www.w3.org/2000/svg">
<rect width="100" height="100" fill="#99D6FF"/>
<path d="M62 38H58C58 33.58 54.42 30 50 30C45.58 30 42 33.58 42 38H38C35.8 38 34 39.8 34 42V66C34 68.2 35.8 70 38 70H62C64.2 70 66 68.2 66 66V42C66 39.8 64.2 38 62 38ZM50 34C52.2 34 54 35.8 54 38H46C46 35.8 47.8 34 50 34ZM62 66H38V42H42V46C42 47.1 42.9 48 44 48C45.1 48 46 47.1 46 46V42H54V46C54 47.1 54.9 48 56 48C57.1 48 58 47.1 58 46V42H62V66Z" fill="#141414"/>
</svg>
