<svg width="100" height="100" viewBox="0 0 100 100" fill="none" xmlns="http://www.w3.org/2000/svg">
<path d="M71.2199 63.98L53.0599 45.82C54.9199 41.14 53.9599 35.62 50.1799 31.82C45.5799 27.22 38.4199 26.8 33.3199 30.52L40.9999 38.22L38.1599 41.04L30.4999 33.38C26.7799 38.46 27.1999 45.64 31.7999 50.22C35.5199 53.94 40.9399 54.92 45.5799 53.18L63.7999 71.4C64.5799 72.18 65.8399 72.18 66.6199 71.4L71.2199 66.8C72.0199 66.04 72.0199 64.78 71.2199 63.98ZM65.2199 67.18L46.2999 48.26C45.0799 49.16 43.7199 49.7 42.2999 49.9C39.5799 50.3 36.7199 49.48 34.6399 47.4C32.7399 45.52 31.8599 43 31.9999 40.52L38.1799 46.7L46.6599 38.22L40.4799 32.04C42.9599 31.9 45.4599 32.78 47.3599 34.66C49.5199 36.82 50.3399 39.8 49.8399 42.58C49.5999 44 48.9999 45.32 48.0799 46.5L66.9799 65.4L65.2199 67.18Z" fill="white"/>
</svg>
