<svg width="100" height="100" viewBox="0 0 100 100" fill="none" xmlns="http://www.w3.org/2000/svg">
<rect width="100" height="100" fill="#99D6FF"/>
<path d="M64.8602 51.96C64.9402 51.32 65.0002 50.68 65.0002 50C65.0002 49.32 64.9402 48.68 64.8602 48.04L69.0802 44.74C69.4602 44.44 69.5602 43.9 69.3202 43.46L65.3202 36.54C65.1402 36.22 64.8002 36.04 64.4402 36.04C64.3202 36.04 64.2002 36.06 64.1002 36.1L59.1202 38.1C58.0802 37.3 56.9602 36.64 55.7402 36.14L54.9802 30.84C54.9202 30.36 54.5002 30 54.0002 30H46.0002C45.5002 30 45.0802 30.36 45.0202 30.84L44.2602 36.14C43.0402 36.64 41.9202 37.32 40.8802 38.1L35.9002 36.1C35.7802 36.06 35.6602 36.04 35.5402 36.04C35.2002 36.04 34.8602 36.22 34.6802 36.54L30.6802 43.46C30.4202 43.9 30.5402 44.44 30.9202 44.74L35.1402 48.04C35.0602 48.68 35.0002 49.34 35.0002 50C35.0002 50.66 35.0602 51.32 35.1402 51.96L30.9202 55.26C30.5402 55.56 30.4402 56.1 30.6802 56.54L34.6802 63.46C34.8602 63.78 35.2002 63.96 35.5602 63.96C35.6802 63.96 35.8002 63.94 35.9002 63.9L40.8802 61.9C41.9202 62.7 43.0402 63.36 44.2602 63.86L45.0202 69.16C45.0802 69.64 45.5002 70 46.0002 70H54.0002C54.5002 70 54.9202 69.64 54.9802 69.16L55.7402 63.86C56.9602 63.36 58.0802 62.68 59.1202 61.9L64.1002 63.9C64.2202 63.94 64.3402 63.96 64.4602 63.96C64.8002 63.96 65.1402 63.78 65.3202 63.46L69.3202 56.54C69.5602 56.1 69.4602 55.56 69.0802 55.26L64.8602 51.96V51.96ZM60.9002 48.54C60.9802 49.16 61.0002 49.58 61.0002 50C61.0002 50.42 60.9602 50.86 60.9002 51.46L60.6202 53.72L62.4002 55.12L64.5602 56.8L63.1602 59.22L60.6202 58.2L58.5402 57.36L56.7402 58.72C55.8802 59.36 55.0602 59.84 54.2402 60.18L52.1202 61.04L51.8002 63.3L51.4002 66H48.6002L48.2202 63.3L47.9002 61.04L45.7802 60.18C44.9202 59.82 44.1202 59.36 43.3202 58.76L41.5002 57.36L39.3802 58.22L36.8402 59.24L35.4402 56.82L37.6002 55.14L39.3802 53.74L39.1002 51.48C39.0402 50.86 39.0002 50.4 39.0002 50C39.0002 49.6 39.0402 49.14 39.1002 48.54L39.3802 46.28L37.6002 44.88L35.4402 43.2L36.8402 40.78L39.3802 41.8L41.4602 42.64L43.2602 41.28C44.1202 40.64 44.9402 40.16 45.7602 39.82L47.8802 38.96L48.2002 36.7L48.6002 34H51.3802L51.7602 36.7L52.0802 38.96L54.2002 39.82C55.0602 40.18 55.8602 40.64 56.6602 41.24L58.4802 42.64L60.6002 41.78L63.1402 40.76L64.5402 43.18L62.4002 44.88L60.6202 46.28L60.9002 48.54ZM50.0002 42C45.5802 42 42.0002 45.58 42.0002 50C42.0002 54.42 45.5802 58 50.0002 58C54.4202 58 58.0002 54.42 58.0002 50C58.0002 45.58 54.4202 42 50.0002 42ZM50.0002 54C47.8002 54 46.0002 52.2 46.0002 50C46.0002 47.8 47.8002 46 50.0002 46C52.2002 46 54.0002 47.8 54.0002 50C54.0002 52.2 52.2002 54 50.0002 54Z" fill="#141414"/>
</svg>
