<svg width="100" height="100" viewBox="0 0 100 100" fill="none" xmlns="http://www.w3.org/2000/svg">
<rect width="100" height="100" fill="#99D6FF"/>
<path d="M35.4499 69.05C34.1832 69.05 33.1082 68.6084 32.2249 67.725C31.3416 66.8417 30.8999 65.7667 30.8999 64.5V55.1H35.4499V64.5H64.5499V35.4H35.4499V44.85H30.8999V35.4C30.8999 34.1334 31.3416 33.05 32.2249 32.15C33.1082 31.25 34.1832 30.8 35.4499 30.8H64.5499C65.8166 30.8 66.8999 31.25 67.7999 32.15C68.6999 33.05 69.1499 34.1334 69.1499 35.4V64.5C69.1499 65.7667 68.6999 66.8417 67.7999 67.725C66.8999 68.6084 65.8166 69.05 64.5499 69.05H35.4499ZM47.3999 60.9501L44.0499 57.65L49.3999 52.25H30.8999V47.7001H49.3999L44.0499 42.3L47.3999 39.05L58.3499 50L47.3999 60.9501Z" fill="#141414"/>
</svg>
