<svg width="100" height="100" viewBox="0 0 100 100" fill="none" xmlns="http://www.w3.org/2000/svg">
<rect width="100" height="100" fill="#99D6FF"/>
<path d="M44.4501 71.05L43.4001 64.4C42.9334 64.2667 42.4168 64.0334 41.8501 63.7C41.2834 63.3667 40.8168 63.05 40.4501 62.75L34.2501 65.6L28.6001 55.6L34.2501 51.5C34.2168 51.3334 34.2001 51.0917 34.2001 50.775V49.275C34.2001 48.9917 34.2168 48.7334 34.2501 48.5L28.6001 44.3L34.2501 34.4L40.5501 37.25C40.8834 37.0167 41.3334 36.7334 41.9001 36.4C42.4668 36.0667 42.9668 35.8334 43.4001 35.7L44.4501 28.9H55.6001L56.6001 35.65C57.1001 35.7834 57.6251 36.0167 58.1751 36.35C58.7251 36.6834 59.1834 36.9834 59.5501 37.25L65.8501 34.4L71.4501 44.3L65.7001 48.35C65.7334 48.6167 65.7751 48.9 65.8251 49.2C65.8751 49.5 65.9001 49.7667 65.9001 50C65.9001 50.2334 65.8751 50.4917 65.8251 50.775C65.7751 51.0584 65.7334 51.3167 65.7001 51.55L71.4501 55.6L65.7501 65.6L59.5501 62.75C59.1834 63.05 58.7084 63.375 58.1251 63.725C57.5418 64.075 57.0501 64.3 56.6501 64.4L55.6001 71.05H44.4501ZM49.9501 56.35C51.7168 56.35 53.2168 55.7334 54.4501 54.5C55.6834 53.2667 56.3001 51.7667 56.3001 50C56.3001 48.2667 55.6834 46.775 54.4501 45.525C53.2168 44.275 51.7168 43.65 49.9501 43.65C48.1501 43.65 46.6418 44.275 45.4251 45.525C44.2084 46.775 43.6001 48.2667 43.6001 50C43.6001 51.7667 44.2084 53.2667 45.4251 54.5C46.6418 55.7334 48.1501 56.35 49.9501 56.35V56.35ZM49.9001 53.5C48.9334 53.5 48.1168 53.15 47.4501 52.45C46.7834 51.75 46.4501 50.9334 46.4501 50C46.4501 49.0334 46.7834 48.2084 47.4501 47.525C48.1168 46.8417 48.9501 46.5 49.9501 46.5C50.8834 46.5 51.7001 46.85 52.4001 47.55C53.1001 48.25 53.4501 49.0667 53.4501 50C53.4501 50.9667 53.1001 51.7917 52.4001 52.475C51.7001 53.1584 50.8668 53.5 49.9001 53.5ZM48.2501 66.5H51.7501L52.5001 60.95C53.6668 60.65 54.7584 60.225 55.7751 59.675C56.7918 59.125 57.7001 58.4 58.5001 57.5L63.8001 59.85L65.3501 56.9L60.7001 53.55C60.8668 52.95 61.0001 52.3584 61.1001 51.775C61.2001 51.1917 61.2501 50.6 61.2501 50C61.2501 49.4 61.2001 48.8 61.1001 48.2C61.0001 47.6 60.8834 47.0334 60.7501 46.5L65.4001 43.1L63.8001 40.15L58.5001 42.5C57.7334 41.5667 56.8418 40.775 55.8251 40.125C54.8084 39.475 53.7001 39.1 52.5001 39L51.8001 33.5H48.2001L47.5501 39C46.3834 39.2334 45.2751 39.65 44.2251 40.25C43.1751 40.85 42.2501 41.5834 41.4501 42.45L36.2501 40.15L34.6501 43.1L39.2501 46.4C39.0834 46.9667 38.9584 47.55 38.8751 48.15C38.7918 48.75 38.7501 49.3834 38.7501 50.05C38.7501 50.6834 38.7918 51.3 38.8751 51.9C38.9584 52.5 39.0834 53.05 39.2501 53.55L34.6501 56.9L36.2501 59.85L41.4501 57.5C42.2834 58.4 43.2168 59.15 44.2501 59.75C45.2834 60.35 46.3834 60.7667 47.5501 61L48.2501 66.5Z" fill="#141414"/>
</svg>
