<svg width="100" height="100" viewBox="0 0 100 100" fill="none" xmlns="http://www.w3.org/2000/svg">
<rect width="100" height="100" fill="#B1E0FF"/>
<path d="M37.4499 70.75C36.2499 70.75 35.1916 70.3084 34.2749 69.425C33.3582 68.5417 32.8999 67.4667 32.8999 66.2V41.75C32.8999 40.4834 33.3582 39.4 34.2749 38.5C35.1916 37.6 36.2499 37.15 37.4499 37.15H41.7499V36.65C41.8166 34.45 42.6499 32.5667 44.2499 31C45.8499 29.4334 47.7666 28.65 49.9999 28.65C52.2332 28.65 54.1582 29.4334 55.7749 31C57.3916 32.5667 58.2332 34.45 58.2999 36.65V37.15H62.5499C63.7499 37.15 64.8166 37.6 65.7499 38.5C66.6832 39.4 67.1499 40.4834 67.1499 41.75V66.2C67.1499 67.4667 66.6832 68.5417 65.7499 69.425C64.8166 70.3084 63.7499 70.75 62.5499 70.75H37.4499ZM37.4499 66.2H62.5499V41.75H58.2999V45.45C58.2999 46.0834 58.0749 46.625 57.6249 47.075C57.1749 47.525 56.6332 47.75 55.9999 47.75C55.3666 47.75 54.8332 47.525 54.3999 47.075C53.9666 46.625 53.7499 46.0834 53.7499 45.45V41.75H46.2999V45.45C46.2999 46.0834 46.0749 46.625 45.6249 47.075C45.1749 47.525 44.6332 47.75 43.9999 47.75C43.3666 47.75 42.8332 47.525 42.3999 47.075C41.9666 46.625 41.7499 46.0834 41.7499 45.45V41.75H37.4499V66.2ZM46.3499 37.15H53.6999V36.65C53.6332 35.75 53.2499 34.95 52.5499 34.25C51.8499 33.55 50.9999 33.2 49.9999 33.2C48.9999 33.2 48.1582 33.55 47.4749 34.25C46.7916 34.95 46.4166 35.75 46.3499 36.65V37.15ZM37.4499 66.2V41.75V66.2Z" fill="#141414"/>
</svg>
